<svg xmlns="http://www.w3.org/2000/svg" viewBox="0 0 1000 1000" width="1000" height="1000" role="img"><rect width="1000" height="1000" fill="#1d1916"/><rect x="80.0" width="4.0" height="283.3" fill="#9a8460"/><ellipse cx="82.0" cy="324.2" rx="40.9" ry="51.1" fill="#7b2d26"/><rect x="185.0" width="4.0" height="329.5" fill="#9a8460"/><ellipse cx="187.0" cy="371.6" rx="42.1" ry="52.6" fill="#c9a98a"/><rect x="290.0" width="4.0" height="419.0" fill="#9a8460"/><ellipse cx="292.0" cy="450.3" rx="31.3" ry="39.1" fill="#9a8460"/><rect x="395.0" width="4.0" height="204.6" fill="#9a8460"/><ellipse cx="397.0" cy="251.4" rx="46.7" ry="58.4" fill="#7b2d26"/><rect x="500.0" width="4.0" height="290.8" fill="#9a8460"/><ellipse cx="502.0" cy="325.5" rx="34.7" ry="43.4" fill="#c9a98a"/><rect x="605.0" width="4.0" height="548.5" fill="#9a8460"/><ellipse cx="607.0" cy="587.9" rx="39.4" ry="49.3" fill="#9a8460"/><rect x="710.0" width="4.0" height="492.8" fill="#9a8460"/><ellipse cx="712.0" cy="532.3" rx="39.5" ry="49.4" fill="#7b2d26"/><rect x="815.0" width="4.0" height="423.7" fill="#9a8460"/><ellipse cx="817.0" cy="456.7" rx="33.0" ry="41.3" fill="#c9a98a"/><rect x="920.0" width="4.0" height="422.2" fill="#9a8460"/><ellipse cx="922.0" cy="469.6" rx="47.4" ry="59.2" fill="#9a8460"/></svg>