<svg xmlns="http://www.w3.org/2000/svg" viewBox="0 0 1000 750" width="1000" height="750" role="img"><rect width="1000" height="750" fill="#c9a98a"/><circle cx="180.6" cy="125.0" r="10.4" fill="#4a3a31"/><circle cx="165.2" cy="172.4" r="10.4" fill="#4a3a31"/><circle cx="124.9" cy="201.7" r="10.4" fill="#4a3a31"/><circle cx="75.1" cy="201.7" r="10.4" fill="#4a3a31"/><circle cx="34.8" cy="172.4" r="10.4" fill="#4a3a31"/><circle cx="19.4" cy="125.0" r="10.4" fill="#4a3a31"/><circle cx="34.8" cy="77.6" r="10.4" fill="#4a3a31"/><circle cx="75.1" cy="48.3" r="10.4" fill="#4a3a31"/><circle cx="124.9" cy="48.3" r="10.4" fill="#4a3a31"/><circle cx="165.2" cy="77.6" r="10.4" fill="#4a3a31"/><circle cx="100.0" cy="125.0" r="52.0" fill="#f5f0e6"/><circle cx="100.0" cy="125.0" r="18.2" fill="#9a8460"/><circle cx="380.6" cy="125.0" r="10.4" fill="#4a3a31"/><circle cx="365.2" cy="172.4" r="10.4" fill="#4a3a31"/><circle cx="324.9" cy="201.7" r="10.4" fill="#4a3a31"/><circle cx="275.1" cy="201.7" r="10.4" fill="#4a3a31"/><circle cx="234.8" cy="172.4" r="10.4" fill="#4a3a31"/><circle cx="219.4" cy="125.0" r="10.4" fill="#4a3a31"/><circle cx="234.8" cy="77.6" r="10.4" fill="#4a3a31"/><circle cx="275.1" cy="48.3" r="10.4" fill="#4a3a31"/><circle cx="324.9" cy="48.3" r="10.4" fill="#4a3a31"/><circle cx="365.2" cy="77.6" r="10.4" fill="#4a3a31"/><circle cx="300.0" cy="125.0" r="52.0" fill="#f5f0e6"/><circle cx="300.0" cy="125.0" r="18.2" fill="#7b2d26"/><circle cx="580.6" cy="125.0" r="10.4" fill="#4a3a31"/><circle cx="565.2" cy="172.4" r="10.4" fill="#4a3a31"/><circle cx="524.9" cy="201.7" r="10.4" fill="#4a3a31"/><circle cx="475.1" cy="201.7" r="10.4" fill="#4a3a31"/><circle cx="434.8" cy="172.4" r="10.4" fill="#4a3a31"/><circle cx="419.4" cy="125.0" r="10.4" fill="#4a3a31"/><circle cx="434.8" cy="77.6" r="10.4" fill="#4a3a31"/><circle cx="475.1" cy="48.3" r="10.4" fill="#4a3a31"/><circle cx="524.9" cy="48.3" r="10.4" fill="#4a3a31"/><circle cx="565.2" cy="77.6" r="10.4" fill="#4a3a31"/><circle cx="500.0" cy="125.0" r="52.0" fill="#f5f0e6"/><circle cx="500.0" cy="125.0" r="18.2" fill="#9a8460"/><circle cx="780.6" cy="125.0" r="10.4" fill="#4a3a31"/><circle cx="765.2" cy="172.4" r="10.4" fill="#4a3a31"/><circle cx="724.9" cy="201.7" r="10.4" fill="#4a3a31"/><circle cx="675.1" cy="201.7" r="10.4" fill="#4a3a31"/><circle cx="634.8" cy="172.4" r="10.4" fill="#4a3a31"/><circle cx="619.4" cy="125.0" r="10.4" fill="#4a3a31"/><circle cx="634.8" cy="77.6" r="10.4" fill="#4a3a31"/><circle cx="675.1" cy="48.3" r="10.4" fill="#4a3a31"/><circle cx="724.9" cy="48.3" r="10.4" fill="#4a3a31"/><circle cx="765.2" cy="77.6" r="10.4" fill="#4a3a31"/><circle cx="700.0" cy="125.0" r="52.0" fill="#f5f0e6"/><circle cx="700.0" cy="125.0" r="18.2" fill="#7b2d26"/><circle cx="980.6" cy="125.0" r="10.4" fill="#4a3a31"/><circle cx="965.2" cy="172.4" r="10.4" fill="#4a3a31"/><circle cx="924.9" cy="201.7" r="10.4" fill="#4a3a31"/><circle cx="875.1" cy="201.7" r="10.4" fill="#4a3a31"/><circle cx="834.8" cy="172.4" r="10.4" fill="#4a3a31"/><circle cx="819.4" cy="125.0" r="10.4" fill="#4a3a31"/><circle cx="834.8" cy="77.6" r="10.4" fill="#4a3a31"/><circle cx="875.1" cy="48.3" r="10.4" fill="#4a3a31"/><circle cx="924.9" cy="48.3" r="10.4" fill="#4a3a31"/><circle cx="965.2" cy="77.6" r="10.4" fill="#4a3a31"/><circle cx="900.0" cy="125.0" r="52.0" fill="#f5f0e6"/><circle cx="900.0" cy="125.0" r="18.2" fill="#9a8460"/><circle cx="180.6" cy="375.0" r="10.4" fill="#4a3a31"/><circle cx="165.2" cy="422.4" r="10.4" fill="#4a3a31"/><circle cx="124.9" cy="451.7" r="10.4" fill="#4a3a31"/><circle cx="75.1" cy="451.7" r="10.4" fill="#4a3a31"/><circle cx="34.8" cy="422.4" r="10.4" fill="#4a3a31"/><circle cx="19.4" cy="375.0" r="10.4" fill="#4a3a31"/><circle cx="34.8" cy="327.6" r="10.4" fill="#4a3a31"/><circle cx="75.1" cy="298.3" r="10.4" fill="#4a3a31"/><circle cx="124.9" cy="298.3" r="10.4" fill="#4a3a31"/><circle cx="165.2" cy="327.6" r="10.4" fill="#4a3a31"/><circle cx="100.0" cy="375.0" r="52.0" fill="#f5f0e6"/><circle cx="100.0" cy="375.0" r="18.2" fill="#7b2d26"/><circle cx="380.6" cy="375.0" r="10.4" fill="#4a3a31"/><circle cx="365.2" cy="422.4" r="10.4" fill="#4a3a31"/><circle cx="324.9" cy="451.7" r="10.4" fill="#4a3a31"/><circle cx="275.1" cy="451.7" r="10.4" fill="#4a3a31"/><circle cx="234.8" cy="422.4" r="10.4" fill="#4a3a31"/><circle cx="219.4" cy="375.0" r="10.4" fill="#4a3a31"/><circle cx="234.8" cy="327.6" r="10.4" fill="#4a3a31"/><circle cx="275.1" cy="298.3" r="10.4" fill="#4a3a31"/><circle cx="324.9" cy="298.3" r="10.4" fill="#4a3a31"/><circle cx="365.2" cy="327.6" r="10.4" fill="#4a3a31"/><circle cx="300.0" cy="375.0" r="52.0" fill="#f5f0e6"/><circle cx="300.0" cy="375.0" r="18.2" fill="#9a8460"/><circle cx="580.6" cy="375.0" r="10.4" fill="#4a3a31"/><circle cx="565.2" cy="422.4" r="10.4" fill="#4a3a31"/><circle cx="524.9" cy="451.7" r="10.4" fill="#4a3a31"/><circle cx="475.1" cy="451.7" r="10.4" fill="#4a3a31"/><circle cx="434.8" cy="422.4" r="10.4" fill="#4a3a31"/><circle cx="419.4" cy="375.0" r="10.4" fill="#4a3a31"/><circle cx="434.8" cy="327.6" r="10.4" fill="#4a3a31"/><circle cx="475.1" cy="298.3" r="10.4" fill="#4a3a31"/><circle cx="524.9" cy="298.3" r="10.4" fill="#4a3a31"/><circle cx="565.2" cy="327.6" r="10.4" fill="#4a3a31"/><circle cx="500.0" cy="375.0" r="52.0" fill="#f5f0e6"/><circle cx="500.0" cy="375.0" r="18.2" fill="#7b2d26"/><circle cx="780.6" cy="375.0" r="10.4" fill="#4a3a31"/><circle cx="765.2" cy="422.4" r="10.4" fill="#4a3a31"/><circle cx="724.9" cy="451.7" r="10.4" fill="#4a3a31"/><circle cx="675.1" cy="451.7" r="10.4" fill="#4a3a31"/><circle cx="634.8" cy="422.4" r="10.4" fill="#4a3a31"/><circle cx="619.4" cy="375.0" r="10.4" fill="#4a3a31"/><circle cx="634.8" cy="327.6" r="10.4" fill="#4a3a31"/><circle cx="675.1" cy="298.3" r="10.4" fill="#4a3a31"/><circle cx="724.9" cy="298.3" r="10.4" fill="#4a3a31"/><circle cx="765.2" cy="327.6" r="10.4" fill="#4a3a31"/><circle cx="700.0" cy="375.0" r="52.0" fill="#f5f0e6"/><circle cx="700.0" cy="375.0" r="18.2" fill="#9a8460"/><circle cx="980.6" cy="375.0" r="10.4" fill="#4a3a31"/><circle cx="965.2" cy="422.4" r="10.4" fill="#4a3a31"/><circle cx="924.9" cy="451.7" r="10.4" fill="#4a3a31"/><circle cx="875.1" cy="451.7" r="10.4" fill="#4a3a31"/><circle cx="834.8" cy="422.4" r="10.4" fill="#4a3a31"/><circle cx="819.4" cy="375.0" r="10.4" fill="#4a3a31"/><circle cx="834.8" cy="327.6" r="10.4" fill="#4a3a31"/><circle cx="875.1" cy="298.3" r="10.4" fill="#4a3a31"/><circle cx="924.9" cy="298.3" r="10.4" fill="#4a3a31"/><circle cx="965.2" cy="327.6" r="10.4" fill="#4a3a31"/><circle cx="900.0" cy="375.0" r="52.0" fill="#f5f0e6"/><circle cx="900.0" cy="375.0" r="18.2" fill="#7b2d26"/><circle cx="180.6" cy="625.0" r="10.4" fill="#4a3a31"/><circle cx="165.2" cy="672.4" r="10.4" fill="#4a3a31"/><circle cx="124.9" cy="701.7" r="10.4" fill="#4a3a31"/><circle cx="75.1" cy="701.7" r="10.4" fill="#4a3a31"/><circle cx="34.8" cy="672.4" r="10.4" fill="#4a3a31"/><circle cx="19.4" cy="625.0" r="10.4" fill="#4a3a31"/><circle cx="34.8" cy="577.6" r="10.4" fill="#4a3a31"/><circle cx="75.1" cy="548.3" r="10.4" fill="#4a3a31"/><circle cx="124.9" cy="548.3" r="10.4" fill="#4a3a31"/><circle cx="165.2" cy="577.6" r="10.4" fill="#4a3a31"/><circle cx="100.0" cy="625.0" r="52.0" fill="#f5f0e6"/><circle cx="100.0" cy="625.0" r="18.2" fill="#9a8460"/><circle cx="380.6" cy="625.0" r="10.4" fill="#4a3a31"/><circle cx="365.2" cy="672.4" r="10.4" fill="#4a3a31"/><circle cx="324.9" cy="701.7" r="10.4" fill="#4a3a31"/><circle cx="275.1" cy="701.7" r="10.4" fill="#4a3a31"/><circle cx="234.8" cy="672.4" r="10.4" fill="#4a3a31"/><circle cx="219.4" cy="625.0" r="10.4" fill="#4a3a31"/><circle cx="234.8" cy="577.6" r="10.4" fill="#4a3a31"/><circle cx="275.1" cy="548.3" r="10.4" fill="#4a3a31"/><circle cx="324.9" cy="548.3" r="10.4" fill="#4a3a31"/><circle cx="365.2" cy="577.6" r="10.4" fill="#4a3a31"/><circle cx="300.0" cy="625.0" r="52.0" fill="#f5f0e6"/><circle cx="300.0" cy="625.0" r="18.2" fill="#7b2d26"/><circle cx="580.6" cy="625.0" r="10.4" fill="#4a3a31"/><circle cx="565.2" cy="672.4" r="10.4" fill="#4a3a31"/><circle cx="524.9" cy="701.7" r="10.4" fill="#4a3a31"/><circle cx="475.1" cy="701.7" r="10.4" fill="#4a3a31"/><circle cx="434.8" cy="672.4" r="10.4" fill="#4a3a31"/><circle cx="419.4" cy="625.0" r="10.4" fill="#4a3a31"/><circle cx="434.8" cy="577.6" r="10.4" fill="#4a3a31"/><circle cx="475.1" cy="548.3" r="10.4" fill="#4a3a31"/><circle cx="524.9" cy="548.3" r="10.4" fill="#4a3a31"/><circle cx="565.2" cy="577.6" r="10.4" fill="#4a3a31"/><circle cx="500.0" cy="625.0" r="52.0" fill="#f5f0e6"/><circle cx="500.0" cy="625.0" r="18.2" fill="#9a8460"/><circle cx="780.6" cy="625.0" r="10.4" fill="#4a3a31"/><circle cx="765.2" cy="672.4" r="10.4" fill="#4a3a31"/><circle cx="724.9" cy="701.7" r="10.4" fill="#4a3a31"/><circle cx="675.1" cy="701.7" r="10.4" fill="#4a3a31"/><circle cx="634.8" cy="672.4" r="10.4" fill="#4a3a31"/><circle cx="619.4" cy="625.0" r="10.4" fill="#4a3a31"/><circle cx="634.8" cy="577.6" r="10.4" fill="#4a3a31"/><circle cx="675.1" cy="548.3" r="10.4" fill="#4a3a31"/><circle cx="724.9" cy="548.3" r="10.4" fill="#4a3a31"/><circle cx="765.2" cy="577.6" r="10.4" fill="#4a3a31"/><circle cx="700.0" cy="625.0" r="52.0" fill="#f5f0e6"/><circle cx="700.0" cy="625.0" r="18.2" fill="#7b2d26"/><circle cx="980.6" cy="625.0" r="10.4" fill="#4a3a31"/><circle cx="965.2" cy="672.4" r="10.4" fill="#4a3a31"/><circle cx="924.9" cy="701.7" r="10.4" fill="#4a3a31"/><circle cx="875.1" cy="701.7" r="10.4" fill="#4a3a31"/><circle cx="834.8" cy="672.4" r="10.4" fill="#4a3a31"/><circle cx="819.4" cy="625.0" r="10.4" fill="#4a3a31"/><circle cx="834.8" cy="577.6" r="10.4" fill="#4a3a31"/><circle cx="875.1" cy="548.3" r="10.4" fill="#4a3a31"/><circle cx="924.9" cy="548.3" r="10.4" fill="#4a3a31"/><circle cx="965.2" cy="577.6" r="10.4" fill="#4a3a31"/><circle cx="900.0" cy="625.0" r="52.0" fill="#f5f0e6"/><circle cx="900.0" cy="625.0" r="18.2" fill="#9a8460"/><rect width="1000" height="60.0" fill="#1d1916"/></svg>